<?xml version="1.0" encoding="UTF-8" standalone="no"?>
<!-- Created with Inkscape (http://www.inkscape.org/) -->

<svg
   version="1.1"
   id="svg1"
   width="353.29932"
   height="100.71381"
   viewBox="0 0 353.29932 100.71381"
   xmlns="http://www.w3.org/2000/svg"
   xmlns:svg="http://www.w3.org/2000/svg">
  <defs
     id="defs1">
    <clipPath
       clipPathUnits="userSpaceOnUse"
       id="clipPath5">
      <path
         d="M 0,0 H 1562.5 V 1562.5 H 0 Z"
         transform="scale(0.31999999)"
         clip-rule="evenodd"
         id="path5" />
    </clipPath>
    <clipPath
       clipPathUnits="userSpaceOnUse"
       id="clipPath9">
      <path
         d="m 213.81076,631.48511 h 231.25 v 231.25 h -231.25 z"
         transform="matrix(1.6990911,0,0,1.6990911,-363.28396,-1072.9507)"
         clip-rule="evenodd"
         id="path9" />
    </clipPath>
    <clipPath
       clipPathUnits="userSpaceOnUse"
       id="clipPath10">
      <path
         d="M 0,0 H 1562.5 V 1562.5 H 0 Z"
         transform="scale(0.31999999)"
         clip-rule="evenodd"
         id="path10" />
    </clipPath>
  </defs>
  <g
     id="g1"
     transform="translate(34.713718,-632.88466)">
    <g
       id="g11"
       transform="translate(-103.13316,430.8094)">
      <g
         id="g3"
         clip-path="url(#clipPath5)">
        <g
           id="g4">
          <path
             id="path4"
             d="m 4.7358179,0.15573432 c -0.9296876,0 -1.6953126,-0.22265626 -2.2968751,-0.67187503 C 1.833474,-0.96145323 1.411599,-1.6098908 1.1733177,-2.4536408 c -0.24218751,-0.84375 -0.27343751,-1.8593751 -0.09375,-3.0468751 0.1640625,-1.2070313 0.4921875,-2.2382814 0.984375,-3.0937501 0.5000001,-0.8515626 1.1171876,-1.503906 1.8593751,-1.953125 0.7500001,-0.445313 1.5859376,-0.671875 2.5156251,-0.671875 0.7187501,0 1.3437501,0.167969 1.8750001,0.5 0.53125,0.335937 0.9375,0.7734374 1.2187501,1.3124999 0.28125,0.5429688 0.3984375,1.1250001 0.359375,1.7500001 H 8.423318 c -0.011719,-0.40625 -0.109375,-0.7851563 -0.296875,-1.1406251 -0.1796875,-0.3515625 -0.4296875,-0.6328125 -0.75,-0.84375 -0.3242188,-0.21875 -0.7109376,-0.328125 -1.1562501,-0.328125 -0.59375,0 -1.140625,0.15625 -1.6406251,0.46875 -0.5,0.3125 -0.9296875,0.796875 -1.28125,1.4531251 -0.34375,0.65625 -0.5898438,1.4960938 -0.734375,2.5156251 -0.1171875,0.78125 -0.1367188,1.453125 -0.0625,2.0156251 0.070312,0.5625 0.2226562,1.0234375 0.453125,1.375 0.2265625,0.34375 0.515625,0.6015625 0.859375,0.7656251 0.3515625,0.1679687 0.75,0.25 1.1875001,0.25 0.4257812,0 0.8125,-0.078125 1.15625,-0.234375 0.3515625,-0.1640626 0.65625,-0.3789063 0.9062501,-0.6406251 0.2578125,-0.2578125 0.46875,-0.5351562 0.625,-0.828125 0.15625,-0.3007813 0.2578125,-0.59375 0.3125,-0.875 l 0.1875,-0.9687501 H 5.6576929 l 0.140625,-1.046875 H 9.7826931 L 8.954568,-5.156903e-4 H 7.923318 L 8.157693,-1.6880158 C 7.9272242,-1.363797 7.6498805,-1.0630157 7.329568,-0.78176572 7.0053492,-0.50832821 6.6303492,-0.28567195 6.2045679,-0.10989069 5.7748804,0.06589056 5.2865991,0.15573432 4.7358179,0.15573432 Z M 15.532693,-5.156903e-4 17.142068,-11.078641 h 6.625001 l -0.203125,1.2499999 h -5.234376 l -0.515625,3.6250002 h 4.703126 l -0.171875,1.234375 h -4.703126 l -0.546875,3.6875002 5.390626,0.015625 -0.1875,1.2656250097 z m 13.003907,0 L 30.13035,-11.078641 h 1.921875 l 1.796875,9.1562502 4.484376,-9.1562502 h 1.890625 L 38.645976,-5.156903e-4 H 37.208475 L 38.505351,-8.9536411 34.208475,-5.156903e-4 H 32.94285 L 31.239725,-8.8598911 29.94285,-5.156903e-4 Z m 16.863282,0 L 47.009257,-11.078641 h 6.625 l -0.203125,1.2499999 h -5.234375 l -0.515625,3.6250002 h 4.703125 l -0.171875,1.234375 h -4.703125 l -0.546875,3.6875002 5.390625,0.015625 -0.1875,1.2656250097 z m 13.003907,0 1.59375,-11.0781253097 h 1.390625 l -1.59375,11.0781253097 z m 8.160156,0 L 68.17332,-11.078641 h 1.312501 l 4.265625,8.6093752 1.234375,-8.6093752 h 1.390625 L 74.767071,-5.156903e-4 H 73.532696 L 69.204571,-8.7348911 67.95457,-5.156903e-4 Z M 85.126446,0.15573432 c -0.5,0 -0.976562,-0.06250001 -1.421875,-0.18750001 -0.449219,-0.13281251 -0.851562,-0.32812502 -1.203125,-0.57812503 -0.34375,-0.25781251 -0.617187,-0.58203128 -0.8125,-0.96875008 -0.199219,-0.3828125 -0.296875,-0.8359375 -0.296875,-1.359375 h 1.46875 c 0.03906,0.4179688 0.164063,0.7734375 0.375,1.0625 0.21875,0.28125 0.503906,0.4960938 0.859375,0.6406251 0.351563,0.1367187 0.75,0.203125 1.1875,0.203125 0.5,0 0.953125,-0.070312 1.359375,-0.21875 0.40625,-0.1445313 0.738282,-0.3515626 1,-0.6250001 0.257813,-0.2695312 0.414063,-0.59375 0.46875,-0.96875 0.05078,-0.3320313 0.01953,-0.6171875 -0.09375,-0.859375 -0.117187,-0.2500001 -0.296875,-0.4531251 -0.546875,-0.6093751 -0.25,-0.1640625 -0.5625,-0.296875 -0.9375,-0.390625 l -2,-0.5 c -0.761719,-0.1757813 -1.335937,-0.4921875 -1.71875,-0.953125 -0.375,-0.4687501 -0.511719,-1.0781251 -0.40625,-1.8281251 0.08203,-0.6328125 0.316406,-1.1914063 0.703125,-1.6718751 0.394531,-0.4882809 0.898438,-0.8671879 1.515625,-1.1406249 0.613281,-0.269531 1.285156,-0.40625 2.015625,-0.40625 0.8125,0 1.476563,0.15625 2,0.46875 0.53125,0.304687 0.921875,0.703125 1.171875,1.2031249 0.25,0.4921875 0.34375,1.0000001 0.28125,1.5312501 h -1.4375 c 0.01953,-0.5 -0.07031,-0.8945313 -0.265625,-1.1875001 -0.1875,-0.2890625 -0.449218,-0.5 -0.78125,-0.625 -0.335937,-0.125 -0.714843,-0.1874999 -1.140625,-0.1874999 -0.386719,0 -0.765625,0.074219 -1.140625,0.2187499 -0.375,0.1367188 -0.695312,0.34375 -0.953125,0.625 -0.261719,0.2734375 -0.417969,0.6171876 -0.46875,1.0312501 -0.0625,0.3984375 0.01563,0.71875 0.234375,0.96875 0.226563,0.25 0.675781,0.4648438 1.34375,0.640625 l 1.921875,0.5156251 c 0.519532,0.1171875 0.929688,0.2890625 1.234375,0.515625 0.300782,0.2304687 0.523438,0.4921875 0.671875,0.78125 0.144532,0.2929688 0.226563,0.6015625 0.25,0.9218751 0.03125,0.3125 0.02344,0.6210937 -0.01563,0.921875 -0.07422,0.5625 -0.304687,1.0742188 -0.6875,1.5312501 -0.386718,0.44921872 -0.898437,0.80859374 -1.53125,1.078125 -0.625,0.26953126 -1.359375,0.40625002 -2.203125,0.40625002 z M 94.552228,-5.156903e-4 99.942853,-11.078641 h 1.546877 l 2.1875,11.0781253097 h -1.40625 L 101.69285,-3.0317658 H 97.442853 L 95.958478,-5.156903e-4 Z M 97.974103,-4.3286409 h 3.546877 L 100.5366,-9.6723911 Z M 109.5952,-5.156903e-4 111.18895,-11.078641 h 1.92187 l 1.79688,9.1562502 4.48437,-9.1562502 h 1.89063 l -1.57813,11.0781253097 h -1.4375 l 1.29688,-8.9531254097 -4.29688,8.9531254097 h -1.26562 L 112.29832,-8.8598911 111.00145,-5.156903e-4 Z m 24.1914,0 1.59375,-11.0781253097 h 4.0625 c 0.75782,0 1.375,0.125 1.84375,0.375 0.47657,0.242187 0.8125,0.589844 1,1.0468749 0.1875,0.4492188 0.23829,0.984375 0.15625,1.6093751 -0.0937,0.6054687 -0.27343,1.1054688 -0.53125,1.5 -0.25,0.3984376 -0.54687,0.7187501 -0.89062,0.9687501 -0.34375,0.2421875 -0.69531,0.4296875 -1.04688,0.5625 l 1.32813,5.0156252097 H 139.8491 L 138.63035,-4.7661409 h -2.78125 l -0.6875,4.7656252097 z M 136.02098,-5.9380159 h 2.26562 c 0.51954,0 0.96875,-0.070312 1.34375,-0.21875 0.38282,-0.1562501 0.69532,-0.3828126 0.9375,-0.6875001 0.23829,-0.3007812 0.38282,-0.6757813 0.4375,-1.125 0.0937,-0.6445313 -0.0273,-1.1289063 -0.35937,-1.4531251 -0.32422,-0.3320312 -0.82031,-0.5 -1.48438,-0.5 h -2.5625 z M 147.57957,-5.156903e-4 149.18895,-11.078641 h 6.625 l -0.20313,1.2499999 h -5.23437 l -0.51563,3.6250002 h 4.70313 l -0.17188,1.234375 h -4.70312 l -0.54688,3.6875002 5.39063,0.015625 -0.1875,1.2656250097 z m 13.00391,0 1.60938,-11.0781253097 h 3.54687 c 0.75,0 1.39453,0.136719 1.9375,0.40625 0.55078,0.261719 0.95703,0.652344 1.21875,1.1718749 0.25781,0.5234375 0.33594,1.1640626 0.23438,1.9218751 -0.11719,0.7421875 -0.36719,1.3710938 -0.75,1.8906251 -0.38672,0.5234375 -0.875,0.9179688 -1.46875,1.1875 -0.59375,0.2734375 -1.26172,0.40625 -2,0.40625 h -2.3125 l -0.59375,4.0937502097 z M 162.75536,-5.2973909 h 2.3125 c 0.46875,0 0.89453,-0.09375 1.28125,-0.28125 0.39453,-0.1875 0.71875,-0.4570313 0.96875,-0.8125001 0.25781,-0.3515625 0.42187,-0.7734375 0.48437,-1.265625 0.10156,-0.7382813 -0.0469,-1.2968751 -0.45312,-1.6718751 -0.40625,-0.375 -0.96875,-0.5625 -1.6875,-0.5625 h -2.23438 z M 172.96629,-5.156903e-4 178.35692,-11.078641 h 1.54687 l 2.1875,11.0781253097 h -1.40625 L 180.10692,-3.0317658 h -4.25 l -1.48438,3.0312501097 z M 176.38817,-4.3286409 h 3.54687 l -0.98437,-5.3437502 z M 188.00926,-5.156903e-4 189.60301,-11.078641 h 4.0625 c 0.75782,0 1.375,0.125 1.84375,0.375 0.47657,0.242187 0.8125,0.589844 1,1.0468749 0.1875,0.4492188 0.23828,0.984375 0.15625,1.6093751 -0.0937,0.6054687 -0.27343,1.1054688 -0.53125,1.5 -0.25,0.3984376 -0.54687,0.7187501 -0.89062,0.9687501 -0.34375,0.2421875 -0.69531,0.4296875 -1.04688,0.5625 l 1.32813,5.0156252097 h -1.45313 L 192.85301,-4.7661409 h -2.78125 l -0.6875,4.7656252097 z M 190.24364,-5.9380159 h 2.26562 c 0.51953,0 0.96875,-0.070312 1.34375,-0.21875 0.38282,-0.1562501 0.69532,-0.3828126 0.9375,-0.6875001 0.23828,-0.3007812 0.38282,-0.6757813 0.4375,-1.125 0.0937,-0.6445313 -0.0273,-1.1289063 -0.35937,-1.4531251 -0.32422,-0.3320312 -0.82031,-0.5 -1.48438,-0.5 h -2.5625 z M 201.80223,-5.156903e-4 203.39598,-11.078641 h 1.39063 l -1.59375,11.0781253097 z m 8.15625,0 1.60938,-11.0781253097 h 6.625 l -0.20313,1.2499999 h -5.23437 l -0.51563,3.6250002 h 4.70313 l -0.17188,1.234375 h -4.70312 l -0.54688,3.6875002 5.39063,0.015625 -0.1875,1.2656250097 z m 13.00391,0 1.59375,-11.0781253097 h 4.0625 c 0.75781,0 1.375,0.125 1.84375,0.375 0.47656,0.242187 0.8125,0.589844 1,1.0468749 0.1875,0.4492188 0.23828,0.984375 0.15625,1.6093751 -0.0937,0.6054687 -0.27344,1.1054688 -0.53125,1.5 -0.25,0.3984376 -0.54688,0.7187501 -0.89063,0.9687501 -0.34375,0.2421875 -0.69531,0.4296875 -1.04687,0.5625 l 1.32812,5.0156252097 h -1.45312 L 227.80614,-4.7661409 h -2.78125 l -0.6875,4.7656252097 z M 225.19676,-5.9380159 h 2.26563 c 0.51953,0 0.96875,-0.070312 1.34375,-0.21875 0.38281,-0.1562501 0.69531,-0.3828126 0.9375,-0.6875001 0.23828,-0.3007812 0.38281,-0.6757813 0.4375,-1.125 0.0937,-0.6445313 -0.0273,-1.1289063 -0.35938,-1.4531251 -0.32421,-0.3320312 -0.82031,-0.5 -1.48437,-0.5 h -2.5625 z m 11.5586,5.9375002097 1.60937,-11.0781253097 h 6.625 l -0.20312,1.2499999 h -5.23438 l -0.51562,3.6250002 h 4.70312 l -0.17187,1.234375 h -4.70313 l -0.54687,3.6875002 5.39062,0.015625 -0.1875,1.2656250097 z m 13.00391,0 1.60937,-11.0781253097 h 1.3125 l 4.26563,8.6093752 1.23437,-8.6093752 h 1.39063 l -1.60938,11.0781253097 h -1.23437 l -4.32813,-8.7343754097 -1.25,8.7343754097 z m 0,0"
             style="fill:#000000;fill-opacity:1;fill-rule:nonzero;stroke:none"
             aria-label="GEMEINSAM REPARIEREN"
             transform="translate(162.14699,302.63333)" />
        </g>
      </g>
      <g
         id="g5"
         clip-path="url(#clipPath10)">
        <g
           id="g6">
          <path
             id="path6"
             d="M 19.501443,-11.545068 24.173319,0.0018073 H 17.485818 L 13.563943,-10.388818 h -5.125 V 0.0018073 H 2.1264427 V -26.951319 H 14.845193 c 1.644532,0 3.109375,0.273438 4.390625,0.8125 1.281251,0.542969 2.285157,1.40625 3.015626,2.59375 0.738281,1.1875 1.109375,2.761719 1.109375,4.718751 0,1.71875 -0.351563,3.195312 -1.046875,4.421875 -0.699219,1.21875 -1.636719,2.171875 -2.812501,2.859375 z m -5.546875,-9.750001 H 8.438943 v 5.437501 h 5.515625 c 2.09375,0 3.140625,-0.921875 3.140625,-2.765625 0,-1.781251 -1.046875,-2.671876 -3.140625,-2.671876 z M 45.966288,0.0018073 H 27.560038 V -26.951319 h 18.40625 v 5.65625 h -12.09375 v 5.015626 h 10.921875 v 5.609375 H 33.872538 v 5.0156251 h 12.09375 z m 10.375001,0 H 50.028788 V -26.951319 h 12.718751 c 1.644531,0 3.109375,0.273438 4.390625,0.8125 1.28125,0.542969 2.285157,1.40625 3.015625,2.59375 0.738282,1.1875 1.109375,2.761719 1.109375,4.718751 0,1.761718 -0.371093,3.273437 -1.109375,4.53125 -0.730468,1.261719 -1.734375,2.230469 -3.015625,2.90625 -1.28125,0.667969 -2.746094,1 -4.390625,1 h -6.40625 z m 0,-21.2968763 v 5.437501 h 5.515625 c 2.09375,0 3.140625,-0.921875 3.140625,-2.765625 0,-1.781251 -1.046875,-2.671876 -3.140625,-2.671876 z M 79.239727,0.0018073 h -6.703125 l 9.21875,-26.9531263 h 6.843751 l 9.21875,26.9531263 h -6.703125 l -1.453125,-4.8437502 h -8.968751 z m 5.9375,-19.9218763 -2.828125,9.609376 h 5.656251 z M 106.75535,0.0018073 h -6.3125 V -26.951319 h 6.3125 z m 22.08594,-11.5468753 4.67188,11.5468753 h -6.6875 l -3.92188,-10.3906253 h -5.125 V 0.0018073 h -6.3125 V -26.951319 h 12.71875 c 1.64453,0 3.10938,0.273438 4.39063,0.8125 1.28125,0.542969 2.28515,1.40625 3.01562,2.59375 0.73828,1.1875 1.10938,2.761719 1.10938,4.718751 0,1.71875 -0.35157,3.195312 -1.04688,4.421875 -0.69922,1.21875 -1.63672,2.171875 -2.8125,2.859375 z m -5.54687,-9.750001 h -5.51563 v 5.437501 h 5.51563 c 2.09375,0 3.14062,-0.921875 3.14062,-2.765625 0,-1.781251 -1.04687,-2.671876 -3.14062,-2.671876 z m 35.6875,21.89062633 c -2.3125,0 -4.32031,-0.37500002 -6.01563,-1.12500005 -1.6875,-0.75000008 -3.08593,-1.77343758 -4.1875,-3.07812508 -1.09375,-1.3125001 -1.91406,-2.8164064 -2.45312,-4.5156252 -0.54297,-1.6953126 -0.8125,-3.488281 -0.8125,-5.375 0,-1.882813 0.26953,-3.664063 0.8125,-5.34375 0.53906,-1.687501 1.35937,-3.179688 2.45312,-4.484376 1.10157,-1.3125 2.5,-2.335937 4.1875,-3.078125 1.69532,-0.738281 3.70313,-1.109375 6.01563,-1.109375 2.375,0 4.39844,0.40625 6.07812,1.21875 1.6875,0.8125 3.02344,1.945313 4.01563,3.390625 0.98828,1.449219 1.60156,3.136719 1.84375,5.062501 h -6.92188 c -0.1875,-1.382813 -0.76172,-2.398438 -1.71875,-3.046876 -0.94922,-0.65625 -2.09375,-0.984375 -3.4375,-0.984375 -2.14843,0 -3.79297,0.761719 -4.9375,2.28125 -1.13672,1.523438 -1.70312,3.554688 -1.70312,6.093751 0,2.574219 0.5664,4.6249999 1.70312,6.15625 1.14453,1.5312501 2.78907,2.2968751 4.9375,2.2968751 1.34375,0 2.48438,-0.328125 3.42188,-0.984375 0.94531,-0.6640626 1.52344,-1.7070314 1.73437,-3.1250002 h 6.92188 c -0.24219,1.9375001 -0.85547,3.6406252 -1.84375,5.1093752 -0.99219,1.4687501 -2.32813,2.6093751 -4.01563,3.42187518 -1.67968,0.81250003 -3.70312,1.21875005 -6.07812,1.21875005 z M 179.11083,0.0018073 h -6.70313 l 9.21875,-26.9531263 h 6.84375 l 9.21875,26.9531263 h -6.70312 l -1.45313,-4.8437502 h -8.96875 z m 5.9375,-19.9218763 -2.82813,9.609376 h 5.65625 z m 21.58203,19.9218763 h -6.3125 V -26.951319 h 18.40625 v 5.65625 h -12.09375 v 5.015626 h 10.92187 v 5.609375 h -10.92187 z m 33.92578,0 H 222.14989 V -26.951319 h 18.40625 v 5.65625 h -12.09375 v 5.015626 h 10.92188 v 5.609375 h -10.92188 v 5.0156251 h 12.09375 z m 0,0"
             style="fill:#000000;fill-opacity:1;fill-rule:nonzero;stroke:none"
             aria-label="REPAIR CAFE"
             transform="translate(162.14699,234.04116)" />
        </g>
        <g
           id="g7">
          <path
             id="path7"
             d="M 7.626443,0.00180876 H 0.14206766 L 8.876443,-13.388817 0.07956766,-26.951317 H 7.595193 l 5.625,9.28125 5.640625,-9.28125 h 7.531251 l -8.796876,13.5625 8.718751,13.39062576 H 18.829568 L 13.251443,-8.6544416 Z m 26.039064,0 H 26.962381 L 36.181132,-26.951317 h 6.84375 l 9.21875,26.95312576 H 45.540507 L 44.087382,-4.8419414 h -8.96875 z m 5.9375,-19.92187576 -2.828125,9.609375 h 5.65625 z M 61.181133,0.00180876 H 54.868632 V -26.951317 h 6.421876 l 10.359375,16.359375 v -16.359375 h 6.3125 V 0.00180876 H 71.540508 L 61.181133,-16.466942 Z m 33.535157,0 H 88.388165 V -21.295067 h -7.59375 v -5.65625 h 21.515625 v 5.65625 h -7.59375 z m 28.83203,0 H 105.14207 V -26.951317 h 18.40625 v 5.65625 h -12.09375 v 5.015625 h 10.92188 v 5.609375 h -10.92188 v 5.0156255 h 12.09375 z m 10.375,0 h -6.3125 V -26.951317 h 6.42188 l 10.35937,16.359375 v -16.359375 h 6.3125 V 0.00180876 H 144.2827 L 133.92332,-16.466942 Z m 0,0"
             style="fill:#000000;fill-opacity:1;fill-rule:nonzero;stroke:none"
             aria-label="XANTEN"
             transform="translate(162.14699,269.04116)" />
        </g>
        <path
           id="path8"
           d="M 392.45099,0 V 196.242 L 196.17799,0 Z M 0,0 196.17799,196.242 V 0 Z M 392.45099,392.45099 V 196.242 h -196.273 z m -196.273,0 V 196.242 H 0 Z"
           style="fill:#7a11ff;fill-opacity:1;fill-rule:nonzero;stroke:none"
           transform="matrix(0.18833598,0,0,0.18833598,68.41944,202.07523)"
           clip-path="url(#clipPath9)" />
      </g>
      <g
         id="g10">
        <path
           id="path11"
           d="m 51.314583,176.03468 h 55.448867 v 55.44887 H 51.314583 Z"
           style="fill:#000000;fill-opacity:0;fill-rule:nonzero;stroke:none"
           transform="matrix(1.3333333,0,0,-1.3333333,0,510.71997)" />
      </g>
    </g>
  </g>
</svg>
